<?xml version="1.0" standalone="no"?><!DOCTYPE svg PUBLIC "-//W3C//DTD SVG 1.1//EN" "http://www.w3.org/Graphics/SVG/1.1/DTD/svg11.dtd"><svg t="1509177213374" class="icon" style="" viewBox="0 0 1024 1024" version="1.1" xmlns="http://www.w3.org/2000/svg" p-id="528" xmlns:xlink="http://www.w3.org/1999/xlink" width="32" height="32"><defs><style type="text/css"></style></defs><path d="M497.768369 382.777917c70.40756-8.370645 134.230144 42.186821 142.556786 112.931049 8.357342 70.812789-41.966811 134.927015-112.349811 143.329383-70.37686 8.40646-134.229121-42.153052-142.555763-112.963795C377.092939 455.330326 427.386392 391.18233 497.768369 382.777917M955.977255 167.864172c-2.097778-17.477047-5.39487-34.419927-9.858532-50.891064-4.496407 147.818627-102.690824 276.719392-242.478544 320.112692-26.544563-69.508074-88.868003-119.259174-162.076352-129.639592C493.536998 150.521179 339.557044 45.524846 171.589518 65.547879c-17.35732 2.074242-34.244942 5.423523-50.595328 9.876951C268.046361 79.977519 396.248208 178.679495 439.445032 319.131341c-69.145823 26.716478-118.608352 89.358167-128.934534 162.985048C154.334529 530.395976 49.912271 685.176155 69.797158 854.022701c2.068102 17.441231 5.365194 34.384112 9.893324 50.855248 4.429893-147.851373 102.655008-276.718369 242.448868-320.108598 26.543539 69.508074 88.859817 119.223359 162.071236 129.636522 48.061622 156.927075 202.006783 261.918291 369.94361 241.899352 17.423835-2.074242 34.273595-5.423523 50.662867-9.911744-147.083893-4.485151-275.320533-103.185081-318.487681-243.672742 69.116147-26.749224 118.644167-89.360214 128.966257-163.018817C871.409185 491.455081 975.861118 336.708672 955.977255 167.864172z" p-id="529" fill="#ffffff"></path></svg>