<?xml version="1.0" standalone="no"?><!DOCTYPE svg PUBLIC "-//W3C//DTD SVG 1.1//EN" "http://www.w3.org/Graphics/SVG/1.1/DTD/svg11.dtd"><svg t="1509177040619" class="icon" style="" viewBox="0 0 1044 1024" version="1.1" xmlns="http://www.w3.org/2000/svg" p-id="997" xmlns:xlink="http://www.w3.org/1999/xlink" width="32.625" height="32"><defs><style type="text/css"></style></defs><path d="M349.163922 0h17.468235c80.916078 30.117647 170.867451 29.31451 251.984314 0h36.34196c-3.011765 8.633725-8.83451 25.700392-11.846274 34.334118-88.947451 52.203922-198.977255 53.609412-295.353726 21.88549-0.401569-18.672941 0-37.546667 1.405491-56.219608zM0 213.232941C40.357647 141.352157 74.49098 42.36549 164.843922 22.086275c-6.224314 107.419608-3.413333 214.638431 18.472156 320.25098 15.861961 53.609412-13.653333 106.014118-59.432156 133.521569-58.62902-17.468235-90.352941-73.687843-123.883922-120.269804v-142.356079zM742.098824 39.353725c58.62902-39.55451 148.178824-21.684706 200.784313 22.487844 61.44 71.68 56.018824 174.682353 101.195294 255.397647v73.687843c-47.385098 0-107.419608-15.661176-137.938823 32.527059-32.727843 25.499608-59.632941 91.758431-109.628235 64.853333-55.617255-37.747451-115.250196-91.959216-114.447059-165.044706-3.814902-96.778039 8.633725-199.981176 60.03451-283.90902z" p-id="998" fill="#e6e6e6"></path><path d="M241.141961 125.088627c67.061961 73.286275 167.855686 122.076863 266.842353 84.730981 43.971765-1.204706 94.569412-57.625098 132.316862-22.889412-11.846275 90.75451-35.538824 186.528627-1.40549 275.275294 31.723922 73.687843 107.018039 111.836863 162.635294 164.843922 6.224314 60.837647-2.409412 141.753725-65.857255 170.265098-97.179608 47.184314-208.012549 66.459608-315.632941 66.459608-78.908235 1.606275-143.560784-52.203922-188.335686-111.836863-41.963922-54.613333-79.510588-115.852549-89.951373-185.123137 31.523137-31.723922 71.68-54.211765 99.789804-89.34902 41.361569-115.250196-63.447843-242.94902-0.401568-352.376471zM208.414118 874.817255c78.707451 26.503529 146.572549 89.549804 233.913725 87.742745 125.289412-6.425098 247.16549-38.14902 369.443137-64.25098-41.160784 108.423529-176.489412 88.345098-265.637647 125.69098h-191.949804c-61.841569-40.156863-124.28549-82.321569-170.064313-141.151373l24.294902-8.031372z" p-id="999" fill="#e6e6e6"></path></svg>