<?xml version="1.0" standalone="no"?><!DOCTYPE svg PUBLIC "-//W3C//DTD SVG 1.1//EN" "http://www.w3.org/Graphics/SVG/1.1/DTD/svg11.dtd"><svg t="1509176689486" class="icon" style="" viewBox="0 0 1024 1024" version="1.1" xmlns="http://www.w3.org/2000/svg" p-id="1035" xmlns:xlink="http://www.w3.org/1999/xlink" width="16" height="16"><defs><style type="text/css"></style></defs><path d="M1023.114027 827.489263a22.249278 22.249278 0 0 0-28.898488-12.019725l-102.29553 41.941167-51.147766-48.334638 85.928246-36.570652a22.249278 22.249278 0 1 0-16.111546-40.918212l-102.295531 41.941167-241.161713-238.860064L882.201933 219.85381a93.856149 93.856149 0 1 0-11.252508-155.489206A415.831332 415.831332 0 0 0 613.931904 100.935256a962.856683 962.856683 0 0 0-285.916008 194.105769L195.287445 163.591268l89.25285-90.020067a22.249278 22.249278 0 0 0-12.531202-36.570652L25.732603 0.174158a21.993539 21.993539 0 0 0-18.924674 6.904948A22.249278 22.249278 0 0 0 0.15872 25.748041l36.826391 245.509273a22.249278 22.249278 0 0 0 15.088591 17.901718 21.226323 21.226323 0 0 0 6.904948 0 22.249278 22.249278 0 0 0 14.577113-5.114776L163.831569 195.047144l131.705496 131.194018a963.36816 963.36816 0 0 0-194.617247 284.893053A414.296899 414.296899 0 0 0 64.349166 869.686169a94.367627 94.367627 0 1 0 155.489206 14.321374L537.210256 566.124182l238.860064 238.860064-41.941167 102.295531a22.249278 22.249278 0 0 0 12.531202 28.898487 21.226323 21.226323 0 0 0 8.439381 0 22.249278 22.249278 0 0 0 20.459107-13.809897l36.570652-85.928245 48.334638 48.334638-41.941167 102.29553a22.249278 22.249278 0 0 0 12.531202 28.898488 21.482061 21.482061 0 0 0 8.439381 0 22.249278 22.249278 0 0 0 20.459106-13.809897l43.475601-106.898829 109.711957-43.987079a22.249278 22.249278 0 0 0 9.973814-23.78371zM895.244614 102.469689a49.613332 49.613332 0 1 1-14.577114 36.570652A49.613332 49.613332 0 0 1 895.244614 102.469689zM73.555763 219.85381l-25.573882-172.623708 173.646663 25.573883z m67.259312 409.182123a928.331941 928.331941 0 0 1 200.754979-286.938964 932.93524 932.93524 0 0 1 288.729135-200.49924 405.090302 405.090302 0 0 1 211.49601-36.570652 94.623366 94.623366 0 0 0-5.881993 21.993539c-140.656355 13.554158-314.047279 109.711957-457.7725 251.902745S139.024903 695.272289 125.726484 836.951599a91.043022 91.043022 0 0 0-21.482062 4.859038 402.277174 402.277174 0 0 1 36.570653-213.286182z m30.688659 336.808035a49.613332 49.613332 0 1 1 14.577113-36.570652 48.334638 48.334638 0 0 1-14.577113 36.570652z m17.134501-114.826733a90.787283 90.787283 0 0 0-18.668934-9.462337c10.485292-126.079242 95.134844-282.591404 224.027212-417.110026l109.711957 109.711956zM537.210256 503.468169l-109.456218-109.967695c132.472712-127.869413 287.70618-210.217316 414.2969-223.515735a95.134844 95.134844 0 0 0 9.462336 19.436151z" fill="#ffffff" p-id="1036"></path></svg>